<?xml version="1.0" encoding="utf-8"?>
<!-- Generator: Adobe Illustrator 26.1.0, SVG Export Plug-In . SVG Version: 6.00 Build 0)  -->
<svg version="1.1" id="Capa_1" xmlns="http://www.w3.org/2000/svg" xmlns:xlink="http://www.w3.org/1999/xlink" x="0px" y="0px"
	 viewBox="0 0 261 66.6" style="enable-background:new 0 0 261 66.6;" xml:space="preserve">
<style type="text/css">
	.st0{fill:#E40520;}
</style>
<g>
	<path d="M43.8,66h-1.5v-9.4h2.2c1.1,0,1.9,0.1,2.5,0.5c0.6,0.4,0.9,1.2,0.9,2c0,1.5-0.8,2.4-2.3,2.5l3.4,4.2h-1.8l-3.3-4.2h-0.2
		L43.8,66L43.8,66z M44.1,60.5c1.4,0,2.1-0.2,2.1-1.3c0-1.2-0.7-1.4-2.1-1.4h-0.3v2.7H44.1z"/>
	<path d="M60.6,62.2l1-2.1c0.1-0.3,0.3-0.6,0.3-1.1c0.2,0.5,0.3,0.8,0.3,1.1l1,2.1H60.6z M65.1,66h1.7l-4.7-9.7L57.3,66H59l1.2-2.5
		h3.9L65.1,66z"/>
	<path d="M75.8,64.6v-6.7h0.6c0.2,0,0.4,0,0.6,0c1.2,0,2.1,0,2.8,0.6c0.8,0.6,1.1,1.5,1.1,2.7c0,1.2-0.3,2.1-1.1,2.7
		c-0.7,0.6-1.5,0.6-2.6,0.6c-0.3,0-0.5,0-0.8,0L75.8,64.6L75.8,64.6z M74.2,66h2.2c0.2,0,0.3,0,0.4,0c1.6,0,2.9,0,4.1-0.8
		c1.1-0.8,1.8-2.1,1.8-3.8c0-1.7-0.6-3-1.8-3.8c-1.2-0.8-2.6-0.8-4.5-0.8h-2.2V66z"/>
	<path d="M94,56.6h1.6V66H94V56.6z"/>
	<path d="M27.4,36.4c-4.3,0-7.3,3.1-7.3,7.5c0,4.3,3.1,7.4,7,7.4c2.4,0,4.5-0.8,6.4-2.5v3.6c-1.8,1.3-3.7,1.9-6.2,1.9
		c-3.1,0-5.7-1-7.6-3c-1.9-1.9-3-4.6-3-7.5c0-2.9,1-5.5,3.1-7.5c1.9-1.9,4.6-3,7.5-3c2.4,0,4.5,0.7,6.4,2l-0.2,3.2
		C31.7,37.2,29.7,36.4,27.4,36.4z"/>
	<path d="M41.7,45.9l2-4.5c0.3-0.5,0.5-1.3,0.7-2.3c0.3,1,0.5,1.7,0.8,2.3l2,4.5H41.7z M50.6,53.7H54l-9.6-20.6l-9.6,20.6h3.4
		l2.3-5.1h7.9L50.6,53.7z"/>
	<path d="M59.1,42.3v-5.7h0.6c2.9,0,4.2,0.5,4.2,3c0,2.4-1.4,2.7-4.2,2.7H59.1z M58.9,44.8h0.4l6.6,8.9h3.6l-6.8-9
		c3-0.3,4.6-2.1,4.6-5.3c0-1.9-0.8-3.4-1.9-4.3c-1.2-0.9-2.8-1.1-4.9-1.1h-4.5v19.8h3.1L58.9,44.8L58.9,44.8z"/>
	<path d="M77.2,45.9l2-4.5c0.3-0.5,0.5-1.3,0.7-2.3c0.3,1,0.5,1.7,0.8,2.3l2,4.5H77.2z M86.1,53.7h3.4l-9.6-20.6l-9.6,20.6h3.4
		l2.3-5.1h7.9L86.1,53.7z"/>
	<path d="M99.9,36.4c-4.3,0-7.3,3.1-7.3,7.5c0,4.3,3.1,7.4,7,7.4c2.4,0,4.5-0.8,6.4-2.5v3.6c-1.8,1.3-3.7,1.9-6.2,1.9
		c-3.1,0-5.7-1-7.6-3c-1.9-1.9-3-4.6-3-7.5c0-2.9,1-5.5,3.1-7.5c1.9-1.9,4.6-3,7.5-3c2.4,0,4.5,0.7,6.4,2l-0.2,3.2
		C104.1,37.2,102.1,36.4,99.9,36.4z"/>
	<g>
		<path class="st0" d="M118.9,33.4c-2.9,0-5.5,1-7.5,3.1c-2,1.9-3.1,4.6-3.1,7.4c0,2.9,1.1,5.4,3.1,7.4c2,1.9,4.7,3.1,7.5,3.1
			c2.8,0,5.5-1.1,7.5-3.1c2-1.9,3.1-4.5,3.1-7.4c0-2.8-1.1-5.4-3.1-7.4C124.3,34.4,121.8,33.4,118.9,33.4z M124,49
			c-1.4,1.4-3.1,2.1-5.1,2.1c-1.9,0-3.7-0.8-5.1-2.1c-1.4-1.4-2.1-3.2-2.1-5.2c0-2,0.8-3.9,2.1-5.3c1.4-1.4,3.1-2.1,5.1-2.1
			c1.9,0,3.7,0.8,5.1,2.1s2.1,3.2,2.1,5.3C126.1,45.8,125.3,47.6,124,49z"/>
		<path class="st0" d="M142.3,4.9c-3.1-3-7-4.6-11.3-4.6c-4.3,0-8.2,1.6-11.3,4.6s-4.7,6.8-4.7,11.1c0,4.2,1.6,8.1,4.7,11
			c3,3,7,4.6,11.3,4.6s8.2-1.6,11.3-4.6s4.7-6.8,4.7-11S145.4,8,142.3,4.9z M138.7,23.9c-2,2.1-4.7,3.2-7.6,3.2
			c-3,0-5.6-1.1-7.6-3.2c-2-2.1-3.1-4.8-3.1-7.8c0-3.1,1.1-5.8,3.1-7.9c2-2.1,4.7-3.2,7.6-3.2s5.6,1.2,7.6,3.2
			c2,2.1,3.2,4.9,3.2,7.9S140.8,21.7,138.7,23.9z"/>
		<path class="st0" d="M111.2,56.1c-1.4,0-2.8,0.5-3.8,1.5c-1,1-1.5,2.3-1.5,3.7c0,1.4,0.5,2.7,1.5,3.7c1,1,2.4,1.5,3.8,1.5
			s2.7-0.5,3.7-1.5c1-1,1.5-2.3,1.5-3.7c0-1.4-0.5-2.7-1.5-3.7C114,56.6,112.7,56.1,111.2,56.1z M113.8,63.9
			c-0.7,0.7-1.5,1.1-2.5,1.1c-0.9,0-1.9-0.3-2.5-1.1c-0.7-0.7-1-1.6-1-2.6s0.3-1.9,1-2.6c0.7-0.7,1.6-1.1,2.5-1.1s1.9,0.3,2.5,1.1
			c0.7,0.7,1,1.6,1,2.6C114.8,62.3,114.5,63.3,113.8,63.9z"/>
	</g>
	<path d="M133.1,33.8h3.2v17h7.2v2.9h-10.4V33.8z"/>
</g>
</svg>
