<svg width="144" height="40" fill="none" xmlns="http://www.w3.org/2000/svg"><g clip-path="url(#a)"><path d="M99.413 34.663c-2.184-1.578.41-4.482-5.11-7.083-8.828-4.16-7.681-8.507-7.638-9.806.131-3.936 4.073-6.438 10.827-7.606 4.831-.882 9.815-1.005 14.931-.376 4.21.515 8.863 1.96 13.944 4.315 6.585 3.064 9.014 6.28 9.195 9.715.045.836-.627 5.106-8.602 7.341-8.669 2.43-4.716 4.659-7.713 5.864-5.692 2.289-16.012.397-19.833-2.364Z" fill="#919191"/><path d="M8.77 17.69 0 18.616l.354 3.344 2.595-.274 1.715 16.24 3.588-.38-1.716-16.24 2.587-.272-.353-3.344ZM18.388 26.729c.278-.985.34-2.23.185-3.7l-.05-.464c-.093-.88-.259-1.64-.495-2.253-.242-.627-.537-1.152-.879-1.56a3.882 3.882 0 0 0-1.168-.963 4.67 4.67 0 0 0-1.256-.446 5.64 5.64 0 0 0-1.233-.107c-.38.01-.731.032-1.046.065l-3.223.34 2.068 19.584 3.54-.374-.703-6.657 2.771 6.44 3.812-.404-3.52-7.43c.553-.518.956-1.213 1.198-2.073l-.001.002Zm-3.317-1.35c-.03.346-.103.623-.216.825a.926.926 0 0 1-.414.388 2.38 2.38 0 0 1-.674.195l-.669-6.332c.288-.017.533-.001.73.047.205.052.368.14.496.269.14.14.252.337.335.589.1.297.173.667.217 1.098l.154 1.458c.061.579.075 1.071.042 1.464ZM22.647 16.224l-3.587.379 2.069 19.584 3.586-.379-2.068-19.584ZM33.58 27.756l-3.38.357.25 2.374c.034.32.036.6.004.829a1.76 1.76 0 0 1-.14.523.57.57 0 0 1-.162.215.33.33 0 0 1-.164.066.71.71 0 0 1-.356-.035c-.087-.038-.16-.138-.206-.215-.1-.166-.189-.41-.262-.728a11.688 11.688 0 0 1-.211-1.359l-.89-8.422A9.713 9.713 0 0 1 28 19.958c.015-.344.058-.62.127-.82.048-.138.11-.24.171-.287a.586.586 0 0 1 .296-.103c.116-.013.24.108.369.357.215.418.374 1.107.473 2.046l.16 1.51 3.035-.32.03-.483c.028-.421.04-.812.04-1.162 0-.357-.022-.747-.066-1.16a7.326 7.326 0 0 0-.353-1.622 3.977 3.977 0 0 0-.807-1.387 3.282 3.282 0 0 0-1.362-.888c-.531-.188-1.168-.244-1.893-.167a5.913 5.913 0 0 0-.875.164 3.576 3.576 0 0 0-.992.435c-.327.203-.635.48-.917.822-.285.347-.522.794-.704 1.33-.175.515-.294 1.138-.354 1.853-.06.705-.038 1.549.064 2.51l.69 6.533c.101.951.254 1.781.456 2.463.205.695.449 1.285.723 1.754.285.488.605.882.95 1.171a3.84 3.84 0 0 0 1.07.649c.363.14.728.222 1.087.242a5.467 5.467 0 0 0 .915-.018h.003c1.276-.144 2.235-.679 2.848-1.59.592-.879.806-2.142.636-3.756l-.24-2.277h.001ZM42.35 20.693c-.103-.975-.26-1.816-.47-2.5-.213-.695-.465-1.285-.751-1.752-.297-.486-.63-.871-.99-1.147a3.738 3.738 0 0 0-1.084-.592 3.739 3.739 0 0 0-1.07-.195c-.323-.01-.619 0-.88.027-.278.029-.58.085-.897.166a3.772 3.772 0 0 0-1.018.436 3.783 3.783 0 0 0-.94.825c-.288.347-.53.793-.718 1.328-.181.516-.307 1.141-.37 1.857-.062.706-.042 1.551.059 2.513l.69 6.533c.1.953.256 1.783.461 2.466.21.696.458 1.286.74 1.756.291.487.618.88.97 1.168a3.95 3.95 0 0 0 1.08.644c.368.141.74.221 1.108.24.117.005.23.008.342.008.209 0 .407-.01.593-.03a5.21 5.21 0 0 0 .873-.177c.34-.097.68-.257 1.003-.475.321-.216.629-.503.915-.852.292-.358.536-.814.723-1.356.18-.52.305-1.148.372-1.863.065-.707.048-1.546-.052-2.493l-.69-6.533.002-.002Zm-3.876 10.464c-.078-.03-.156-.103-.232-.219-.11-.165-.207-.405-.29-.716a8.89 8.89 0 0 1-.223-1.333l-.886-8.39a9.887 9.887 0 0 1-.065-1.403c.015-.34.06-.613.133-.81.052-.142.116-.24.19-.29a.752.752 0 0 1 .358-.12c.037-.003.072-.005.106-.005a.61.61 0 0 1 .25.047c.099.043.184.155.238.241.11.18.21.439.297.77.094.361.172.827.23 1.386l.887 8.39c.057.543.077.998.058 1.35-.017.323-.06.581-.13.766-.049.127-.107.214-.174.258a.78.78 0 0 1-.356.114.857.857 0 0 1-.39-.037l-.001.001ZM48.082 29.959l-1.715-16.24-3.587.379 2.068 19.584 6.92-.73-.353-3.345-3.333.352ZM59.214 22.417c.278-.985.34-2.23.185-3.7l-.05-.464c-.092-.88-.259-1.638-.495-2.253-.242-.627-.536-1.151-.879-1.559a3.884 3.884 0 0 0-1.168-.964 4.673 4.673 0 0 0-1.256-.446 5.635 5.635 0 0 0-1.233-.106c-.38.01-.731.032-1.046.064l-3.223.34 2.068 19.585 3.54-.375-.703-6.656 2.771 6.438 3.813-.402-3.521-7.43c.553-.519.956-1.213 1.198-2.073l-.001.001Zm-3.316-1.349c-.03.346-.104.622-.217.824a.926.926 0 0 1-.414.388c-.179.089-.405.153-.674.195l-.669-6.332c.288-.017.533 0 .73.048.205.051.368.139.496.268.14.14.252.338.335.59.1.296.173.666.217 1.098l.154 1.458c.061.58.075 1.07.042 1.463ZM69.254 17.852c-.103-.975-.26-1.816-.47-2.5-.213-.695-.466-1.285-.751-1.751-.298-.486-.63-.872-.99-1.147a3.738 3.738 0 0 0-1.085-.592 3.778 3.778 0 0 0-1.07-.197c-.322-.009-.618 0-.88.028-.28.03-.58.085-.897.166a3.775 3.775 0 0 0-1.018.435 3.765 3.765 0 0 0-.939.826c-.288.347-.53.793-.719 1.328-.181.515-.306 1.141-.37 1.857-.061.706-.042 1.551.06 2.512l.69 6.533c.1.953.255 1.783.46 2.466.21.694.459 1.286.741 1.755.292.487.619.88.971 1.167a3.95 3.95 0 0 0 1.08.644c.368.142.74.222 1.107.24.117.006.23.008.342.008.208 0 .407-.01.594-.03.264-.027.556-.087.872-.176a3.55 3.55 0 0 0 1.004-.476c.321-.215.629-.502.914-.851.293-.358.536-.814.724-1.356.18-.521.305-1.148.372-1.863.065-.707.048-1.546-.052-2.493l-.69-6.533Zm-3.488 10.501a.857.857 0 0 1-.39-.037c-.078-.03-.156-.103-.232-.219-.109-.165-.206-.406-.29-.716a8.888 8.888 0 0 1-.224-1.333l-.886-8.39a9.904 9.904 0 0 1-.065-1.403c.015-.341.06-.613.134-.81.051-.142.116-.24.19-.29a.751.751 0 0 1 .357-.12 1.16 1.16 0 0 1 .106-.005c.095 0 .178.016.25.047.099.043.184.155.238.241.111.18.211.439.297.77.094.36.171.827.23 1.386l.887 8.39c.058.543.077.998.059 1.35-.018.323-.061.581-.131.767-.049.127-.107.215-.174.258a.775.775 0 0 1-.356.114ZM79.061 22.953l-3.38.357.25 2.374c.034.32.036.6.004.829-.029.214-.077.39-.141.523a.568.568 0 0 1-.16.215.334.334 0 0 1-.166.066.723.723 0 0 1-.356-.035c-.087-.038-.16-.138-.206-.216-.1-.166-.188-.41-.262-.728-.082-.352-.153-.809-.211-1.359l-.89-8.422a9.89 9.89 0 0 1-.064-1.403c.014-.344.058-.621.127-.82.047-.139.11-.24.171-.285a.586.586 0 0 1 .296-.104c.116-.012.24.108.369.357.214.418.374 1.106.473 2.046l.16 1.51 3.034-.32.032-.483c.027-.422.04-.813.04-1.162 0-.357-.023-.747-.067-1.16a7.333 7.333 0 0 0-.354-1.622 3.977 3.977 0 0 0-.806-1.387 3.28 3.28 0 0 0-1.362-.887c-.531-.188-1.169-.244-1.893-.168a6.053 6.053 0 0 0-.876.164c-.336.087-.67.234-.993.435-.327.203-.635.48-.916.822-.286.347-.522.794-.704 1.33-.174.515-.293 1.138-.353 1.853-.059.704-.038 1.549.064 2.51l.69 6.533c.101.951.254 1.781.456 2.463.205.695.449 1.285.723 1.754.285.487.605.882.95 1.171.344.288.703.506 1.07.649.363.142.73.224 1.086.242a6.182 6.182 0 0 0 .915-.018h.004c1.276-.144 2.235-.679 2.848-1.59.592-.878.806-2.142.636-3.756l-.24-2.277h.002ZM90.01 28.912l-4.761-9.976 2.347-9.571-3.654.386-1.316 5.655-.577-5.456-3.587.38 2.069 19.583 3.587-.379-.645-6.098 2.704 5.881 3.832-.405Z" fill="#D8D9D8"/><path opacity=".8" d="M89.984 8.365a21.894 21.894 0 0 1 2.416-.74c.493-.07 1.017-.095 1.444-.364.713-.042 1.454.011 2.052-.427.608.143 1.356-.106 1.963-.259.207-.056.448-.098.648-.15.406-.11.804-.328 1.267-.443.47-.134 1.028-.055 1.428.243l-.05-.026c.726.236 1.457-.145 2.2-.199a2.4 2.4 0 0 1 .844.061l-.262.117c.193-.428.562-.669.999-.384.186.11.311.249.477.294.027.002.03 0 .051-.01l.232-.117c.082.167.181.432.303.539.073.06.086.063.179.036.093-.03.213-.116.344-.204.134-.086.279-.195.513-.241l.099-.02c.28.184.491.438.762.569.061.024.098.025.129.018l-.114.063c.082-.078.175-.15.28-.208.323-.187.734-.15 1.053-.163.124.12.314.35.468.372.034.004.074-.032.098-.055.092-.086.201-.315.274-.433a5.308 5.308 0 0 0 1.76.501c.58.064 1.184.048 1.779.014.188.252.37.531.714.493.348-.026.695-.206 1.102-.127l-.121.002c.71-.179 1.446.131 2.049.456.279.33.6.649 1.024.587.142-.02.301-.107.43-.198.326.036.651.075.985.168.299.082.594.212.856.388l-.25-.031c.51-.185.949.294 1.333.506.076.036.117.05.183.034l-.13.11c.156-.266.514-.639.9-.548.546.13.792.707 1.017 1.148l-.048-.071c.36.38.705.8 1.109 1.112.189.143.405.256.604.277.263.047.519-.136.721-.314l.153.127c.419.35 1.04.01 1.517.272.449.213.67.7.846 1.135l-.048-.076c.126.131.265.236.429.309.162.077.355.12.566.19.44.12.821.499 1.022.898l-.028-.038c.471.565 1.131.852 1.684 1.35l-.154-.043c.229-.037.446.064.608.2.404.343.634.813.983 1.19l-.252.048c.051-.11.115-.236.226-.302.581-.285.745 1.257 1.045 1.546 0 0 .002.005-.006 0-.006-.002-.013.004-.016.002-.012.006-.004 0 .002-.003l-.01.014.04-.055c.556-.567.793.962 1.074 1.211l.029.024c.063.357.112.722.256 1.053a.407.407 0 0 0 .103.148c.081.08.242-.124.317-.22l.039.063.318.515c.319.513.609 1.048.841 1.606a11.3 11.3 0 0 0-.914-1.56l-.334-.5.088.003c-.312.434-.528.19-.663-.202a6.694 6.694 0 0 1-.214-.846l.033.054c-.207-.182-.323-.57-.448-.81-.085-.154-.15-.355-.295-.438 0 0-.01.005-.025.017l-.024.028-.024.035-.008.012c-.065.074-.177.12-.275.06-.155-.105-.214-.266-.286-.414-.162-.337-.296-.837-.511-1.08.006 0 .009-.002.013 0 .002.002.009-.007.005-.002 0 .002-.002.003-.004.004-.003 0-.007.01-.012.014l-.012.015-.014.024c-.02.028-.035.07-.053.107l-.099.202-.153-.155c-.347-.302-.838-1.281-1.306-1.251l-.086.016-.068-.06c-.545-.457-1.266-.777-1.748-1.343-.205-.342-.425-.614-.824-.722-.412-.102-.914-.272-1.215-.621-.128-.285-.248-.592-.479-.805l-.026-.025-.027-.018a.565.565 0 0 0-.236-.107c-.172-.044-.4-.005-.672-.005-.286.01-.597-.09-.829-.27l.314-.003c-.855.728-1.808.034-2.422-.635-.202-.208-.391-.415-.585-.617-.1-.205-.471-.984-.727-.86-.093.045-.233.237-.31.37l-.076.024a.783.783 0 0 1-.631-.046c-.27-.131-.472-.333-.708-.448a.37.37 0 0 0-.161-.04c-.013.004-.024.009-.037.009h-.202l-.046-.031c-.442-.297-.956-.393-1.491-.448l.185-.045c-.758.52-1.562.143-2.081-.507l.087.07c-.519-.27-1.092-.531-1.661-.37-.145-.037-.269-.024-.463.02-.694.202-1.235.132-1.67-.509l.246.121c-1.144.063-2.353.01-3.418-.486l.351-.118c-.397.743-.981.68-1.493.09l.197.082c-.203.003-.374-.007-.513.021-.161.026-.291.12-.411.236-.531.18-.938-.336-1.291-.596l.187.043c-.238.066-.482.311-.777.416-.466.18-.828-.232-.976-.618l.337.113a.546.546 0 0 1-.369.058c-.316-.055-.506-.335-.758-.423-.026-.004-.029-.006-.052.005a.298.298 0 0 0-.088.088c-.033.04-.063.096-.093.151l-.089.167a2.103 2.103 0 0 0-.86-.11c-.776.057-1.583.426-2.368.133l-.027-.01-.022-.017c-.323-.247-.716-.308-1.114-.211-.408.087-.808.293-1.268.409-.452.083-.877.184-1.31.284-.44.093-.913.167-1.383.056l.09-.016c-.159.095-.328.174-.504.23-.505.168-1.207.13-1.568.12-.46.262-.99.27-1.494.323-.817.164-1.635.382-2.433.628h.003Z" fill="#D8D9D8"/><path d="M5.161 40c1.672-.635 3.452-1.038 5.245-1.055.218-.001.454.007.673.02.044-.004.106.02.124.065.04.087.044.177.07.262.04.173.175.31.348.351.528.106 1.062-.098 1.562-.254l-.016.017c.42-1.94 3.255.5 3.785-.655l.007-.016c.082-.04.172-.018.24.013.395.191.688.654 1.148.693.486-.032.634-.815.734-1.208l.004-.018.014-.013c.595-.548.948 1.16 1.428.617.058-.07.112-.156.156-.24l.04-.006c.375-.066.646-.395.994-.563.454-.262.859-.035 1.102.361l-.16.018c.095-.244.182-.486.393-.669.683-.543 1.265 1.238 1.81.393l.02-.03.034-.011c.63-.208 1.206-1.028 1.949-.74.249.107.416.307.555.504l-.09-.05c.699-.012 1.26-.66 1.996-.564.253.03.48.173.667.34.768.586 1.675-.84 2.59-.376l-.166.038a.588.588 0 0 1 .203-.165c.236-.124.516.056.686.154.111.063.211.097.272.074.094-.018.21-.21.267-.316l.122.055a.17.17 0 0 0 .108.011c.242-.066.422-.296.675-.39.272-.123.545.038.684.27l-.02-.026c.736.757 1.66.146 2.378-.312.127-.066.274-.1.416-.108.826-.017 1.529.715 2.17-.157l.032-.041c.464-.124.94-.189 1.41-.23.474-.041.943-.06 1.409-.1.372.323.832.166 1.242-.032.44-.208.995-.484 1.497-.263l-.144.008c.451-.249.904-.507 1.418-.625l-.09.052c.42-.516.985-.8 1.423-.118.097.15.17.304.235.46l-.04-.06c.384.352.81-.142 1.233-.2l-.105.066c.387-.515.728-.258 1.194-.12.116.025.199-.048.283-.12 1.236.27 2.075 1.034 3.006-.31 1.129-.285 2.134.839 3.042-.328.538-.253 1.124-.335 1.707-.331.438.018.891.303 1.272.026.47-.43 1.132-.753 1.715-.303l-.084-.03c.472.008 1.062-.326 1.54-.041l-.193.041c.174-.242.479-.447.792-.433.304 0 .566.128.85.136l.04.036c.167.163.344.104.547.012.176-.08.393-.195.612-.185a.596.596 0 0 1 .247.067l-.19.044a.577.577 0 0 1 .325-.238c.261-.058.44.111.641.148.067.009.103-.006.159-.054l.07-.061.082.031c.326.13.672.107.957-.103l.112-.08.085.108c.114.145.19.12.346.036.184-.107.424-.29.665-.2l-.151.04a.985.985 0 0 1 .394-.292c.448-.18.87.17 1.293.183l-.064.019c.476-.295 1.13-.618 1.677-.282l-.093-.012c.281-.076.566.011.822.1.242.082.478.163.688.114l-.062.037c.194-.216.407-.427.684-.567a.973.973 0 0 1 .917.002h-.103c.44-.251.99-.125 1.454-.144l-.038.01c.216-.104.436-.22.688-.282a.942.942 0 0 1 .77.118l-.11.002c.923-.664 1.807.955 2.532-.253.734-.588 1.681-1.337 2.418-.253l-.067-.025c.184-.044.355-.153.52-.267.337-.21.717-.605 1.144-.4.2.109.314.298.41.478l-.014-.017c.139.097.281.189.43.262.15.073.31.127.471.126.338 0 .596-.286.758-.559.094-.107.24-.186.387-.163.277.027.463.304.738.275.127-.027.209-.153.272-.269l1.879-.194-1.865.23.013-.01c-.062.12-.147.253-.289.286-.285.042-.49-.233-.753-.26-.117-.024-.266.069-.325.139-.088.148-.19.291-.324.406-.448.412-1.035.093-1.45-.197-.571-1.137-1.229.067-1.968.258l-.04.01-.027-.035c-.482-.69-1.054-.558-1.656-.119-.183.128-.359.268-.537.407l.02-.022a1.805 1.805 0 0 1-.228.296c-.761.789-1.575-.502-2.332.026l-.053.04c-.421-.32-.9-.061-1.316.15l-.019.009h-.02c-.486.031-.992-.106-1.418.16a.754.754 0 0 0-.765-.02c-.24.123-.449.332-.635.546a1.015 1.015 0 0 1-.47.005c-.364-.073-.765-.31-1.113-.186-.489-.313-1.02-.003-1.464.265l-.03.019h-.035c-.615-.002-1.07-.557-1.546.102l-.088-.034c-.138-.033-.293.112-.432.185a.643.643 0 0 1-.365.106c-.144-.01-.265-.106-.347-.21l.197.029c-.17.122-.378.214-.597.236-.22.023-.437-.02-.63-.093l.152-.031a.476.476 0 0 1-.402.13c-.135-.02-.234-.074-.322-.108-.089-.037-.162-.054-.21-.041-.078.008-.174.156-.228.23l-.112-.062c-.198-.095-.396.045-.597.128-.271.142-.635.183-.876-.065l.094.04c-.27-.015-.526-.127-.777-.13-.282-.008-.474.204-.63.419-.502-.339-1.001.064-1.57.02-.149-.114-.32-.193-.498-.187-.34.01-.632.256-.89.469-.21.157-.498.209-.75.168-.271-.035-.478-.118-.721-.133-.518 0-1.056.075-1.522.293l.056-.043c-.192.225-.423.429-.705.538-.813.342-1.628-.298-2.425-.135l.097-.064c-.176.24-.382.47-.65.638-.82.543-1.76-.035-2.578-.221l.147-.04c-.26.252-.623.14-.89.017-.11-.044-.204-.066-.27-.047-.08.011-.18.125-.24.214-.401.062-.734.4-1.178.338a.793.793 0 0 1-.444-.239c-.113-.249-.3-.762-.623-.68-.209.075-.367.266-.521.438-.518.107-.99.384-1.455.64-.426-.227-.893.037-1.308.223-.449.229-1.075.393-1.518.03l.108.031c-.904.07-1.803.076-2.655.295l.084-.055a1.99 1.99 0 0 1-.269.28c-.829.71-1.674-.24-2.401.05-.413.254-.821.526-1.302.658-.5.161-1.098-.02-1.453-.4-.06-.08-.123-.177-.22-.192-.185-.015-.43.23-.617.332-.142.087-.355.142-.52.056l.188-.057c-.184.343-.516.456-.862.232-.205-.108-.374-.268-.536-.063l-.072.084a.795.795 0 0 0-.675-.065c-.437.134-.817.448-1.296.535a.932.932 0 0 1-.753-.192l-.133-.111c-.507-.427-1.142-.03-1.662.195-.233.1-.5.187-.78.166-.24-.397-.603-.67-1.068-.435-.418.189-.759.537-1.216.69l.055-.041a.778.778 0 0 1-.308.283c-.408.174-.764-.289-1.026-.502-.16-.128-.344-.29-.531-.143-.208.18-.306.495-.402.752-.46-.79-.803-.619-1.461-.15-.166.108-.341.227-.567.255l.058-.04c-.712 1.236-1.136-.851-1.615-.393l.017-.031c-.127.452-.279 1.255-.854 1.283-.492-.036-.775-.507-1.182-.717-.056-.025-.113-.04-.159-.02l.023-.023c-.531 1.125-2.764-.74-3.59.157a1.065 1.065 0 0 0-.228.492l-.013.005c-.34.112-.687.215-1.045.261-.267.028-.572.045-.781-.154-.135-.13-.135-.337-.195-.498-.02-.04-.052-.051-.1-.05l-.134-.008c-1.97-.094-3.942.33-5.783 1.014V40Z" fill="#D8D9D8"/><path opacity=".5" d="M82.41 5.454c1.517-.836 3.216-1.519 4.84-2.134l.025-.01.021.017c.492.32 1.05-.772 1.647-.586l-.055.01c.414-.291.879-.577 1.399-.63a1.5 1.5 0 0 1 .53.042l-.03-.003c.38-.035.757.076 1.124.03.39-.04.684-.303.92-.597.796.267 1.488-.471 2.282-.486l.03-.002.027.015c.362.206.786.24 1.184.134.415-.108.803-.336 1.165-.586l.048.007c.426.054.83-.16 1.233-.302.434-.171.972-.27 1.408-.022l-.148.013c.392-.33.953-.413 1.443-.334.454.055.912.182 1.358.088l.044-.009.043.018c.425.184.891.168 1.346.103l.035-.005.032.01c.471.133.924-.226 1.438-.19.611.095 1.219.43 1.759.012.587.287 1.236-.009 1.884.12l-.071.003a3.093 3.093 0 0 1 1.012-.125c.328.01.743.153.982.303.568.29 1.211.235 1.843.224.629.155 1.269.523 1.908.327.564-.105 1.069.137 1.561.348.316.14.524.502.798.659.202.118.346-.318.417-.47l.186.04c.187.067.347-.1.535-.185.135-.073.325-.134.484-.078a.555.555 0 0 1 .183.096c.074.068.135.146.183.222.192.323.426.475.787.483.123.01.264.02.407.066l-.117.006c.464-.217.94.196 1.335.318l-.034-.006c.07.004.17-.033.281-.081.303-.154.638-.153.845.16.086.113.136.235.192.362l-.044-.062c.348.302.683.64 1.07.877.187.113.387.188.575.176.232-.004.443-.195.606-.37.176.137.371.257.587.323.37.118.777.111 1.157.258.202.075.39.194.549.339l-.044-.029c.486.208 1.101.257 1.58.554.17.103.325.229.46.369l-.031-.024c.094.062.14.128.185.19.219.306.305.73.559.992.006 0-.014-.003-.022 0-.008.006.006-.004.016-.017l.164-.177.084.211c.017.043.051.088.046.08-.001-.005-.041-.006-.042-.003.183-.149.263-.552.554-.614.231-.012.299.226.351.39.057.282.109.595.235.847.027.057.073.104.079.102l.009-.004c.189-.139.304-.455.433-.662.033.092.109.388.171.465.008.009-.006-.006-.021-.002-.016.004-.004 0 .007-.008.116-.102.186-.263.352-.318.277-.058.347.323.392.506.041.19.081.376.159.553l.035.064c.011.02.025.034.037.052.005.007.012.01.017.015.006.005.011.011.015.01.015.01.031.01.073-.004.109-.046.224-.138.381-.117l-.052.003c.079-.022.165-.069.285-.09.119-.03.28.031.357.124.15.168.204.359.268.558l-.067-.07c.304.114.602.269.858.476.258.206.474.456.659.723l-.034-.03c.277.151.601.26.848.475.259.217.438.508.583.806l.002.01.074.254c.026.084.056.168.083.25.126.292.253.675.578.77.155.045.342-.009.532-.028.551.365.966.887 1.33 1.428.119.298.276.592.56.762.134.086.289.167.411.29.125.122.219.27.295.423.091.33.195.672.408.937.222.279.644.28.843.592l1.291 1.645-1.327-1.615c-.208-.302-.632-.295-.857-.578-.219-.262-.358-.66-.435-.949-.147-.305-.383-.502-.682-.658-.283-.152-.516-.537-.606-.786-.356-.51-.764-1.009-1.288-1.349l.049.012c-.167.02-.355.08-.561.03-.483-.146-.637-.702-.791-1.122l-.078-.26.006.016a3.186 3.186 0 0 0-.234-.4c-.269-.419-.719-.576-1.147-.79a2.872 2.872 0 0 0-1.443-1.13l-.051-.018-.017-.052c-.047-.158-.115-.347-.22-.465-.053-.05-.09-.067-.159-.054-.066.011-.181.063-.281.093-.092-.02-.181.067-.288.104-.466.169-.579-.54-.659-.855-.033-.122-.053-.239-.118-.324-.004 0 .023.01.03.006a.36.36 0 0 0-.07.068c-.06.064-.112.148-.191.209-.247.188-.412-.083-.468-.292l.238.023c-.129.256-.435.787-.762.421-.224-.31-.27-.684-.35-1.041l.003.015a.56.56 0 0 0-.082-.183c-.009-.009.012.013.033.006.022-.007.008-.001 0 .007-.172.177-.231.472-.482.598-.178.072-.317-.086-.374-.233l.248.033c-.035.037-.068.08-.14.108a.271.271 0 0 1-.217-.013c-.105-.061-.148-.13-.194-.192-.155-.24-.252-.49-.381-.733-.048-.093-.124-.227-.204-.273-.52-.584-1.285-.585-1.982-.873-.279-.269-.63-.368-1.014-.42-.399-.051-.838-.154-1.17-.411l.207-.018c-.436.462-.965.468-1.473.154-.42-.255-.757-.593-1.12-.907l-.027-.023-.017-.039c-.072-.148-.151-.39-.333-.418-.222 0-.455.224-.737.18-.411-.097-.711-.463-1.117-.329l-.057.025-.061-.02c-.23-.068-.495-.031-.744-.124-.278-.092-.488-.328-.632-.563-.128-.191-.198-.23-.411-.118-.231.132-.565.35-.852.185l.239-.084c-.123.326-.427.738-.834.519-.332-.178-.475-.487-.779-.654-.417-.182-.894-.414-1.348-.334l.02-.005c-.181.054-.37.075-.553.067-.522-.021-1.022-.25-1.498-.394l.05.007c-.659.015-1.384.057-1.999-.268-.53-.332-1.169-.33-1.76-.158l-.035.009-.036-.007c-.588-.109-1.281.152-1.868-.114l.145-.013c-.285.195-.667.248-.999.188-.312-.053-.679-.172-.887-.202-.472-.01-1.003.344-1.503.173l.067.006a3.965 3.965 0 0 1-.751.042 2.177 2.177 0 0 1-.753-.17l.087.01c-.94.2-1.959-.509-2.764.225-.859-.54-1.72.423-2.625.284l.087-.02c-.367.247-.762.47-1.208.582a1.788 1.788 0 0 1-1.344-.168l.057.014c-.783.031-1.482.724-2.29.474l.105-.03c-.25.303-.599.565-1.004.602-.413.042-.794-.066-1.16-.045-.653-.185-1.307.19-1.836.554-.554-.142-.91.617-1.454.618a.434.434 0 0 1-.244-.086l.047.007c-1.625.59-3.34 1.24-4.874 2.037l-.003.004Z" fill="#fff"/><path d="M130.635 23.01c.3-2.43-2.308-4.584-7.813-6.452-3.726-1.281-7.408-2.121-11.02-2.52-3.619-.415-7.378-.403-11.29.031-5.748.609-8.755 2.122-9.012 4.548-.265 2.422 2.326 4.552 7.794 6.414 3.751 1.284 7.408 2.125 10.95 2.527 3.606.408 7.36.406 11.287-.007 5.78-.644 8.826-2.15 9.103-4.54h.001Z" fill="#D8D9D8"/><path d="M130.592 23.207c.327-2.427-2.257-4.61-7.74-6.54-3.711-1.324-7.384-2.205-10.991-2.644-3.614-.455-7.374-.485-11.291-.095-5.754.543-8.777 2.024-9.061 4.446-.293 2.419 2.275 4.577 7.72 6.5 3.737 1.327 7.383 2.207 10.922 2.649 3.601.449 7.355.49 11.287.12 5.787-.58 8.849-2.052 9.154-4.439v.003Zm-8.826-1.082c-.168 1.313-1.788 2.125-4.858 2.436-2.15.202-4.275.174-6.372-.087a28.559 28.559 0 0 1-6.18-1.47c-2.887-1.049-4.245-2.237-4.084-3.556.169-1.312 1.77-2.121 4.828-2.436a28.338 28.338 0 0 1 6.38.075c2.095.26 4.163.75 6.2 1.48 2.895 1.04 4.261 2.232 4.088 3.558h-.002Zm-4.907-.615c.223-1.79-1.618-2.92-5.515-3.405-3.897-.484-5.954.178-6.183 1.962-.215 1.782 1.613 2.904 5.51 3.389 3.898.484 5.958-.16 6.188-1.946Zm-7.227 10.208c-4.177-.525-8.755-1.959-13.76-4.3-6.562-3.05-9.649-6.261-9.246-9.646.462-3.91 4.073-6.437 10.827-7.605 4.831-.882 9.815-1.005 14.931-.376 4.21.515 8.864 1.96 13.944 4.315 6.585 3.064 9.651 6.306 9.196 9.715-.449 3.395-4.248 5.77-11.389 7.126-5.484 1.03-10.325 1.295-14.503.77Z" fill="#010101"/><path d="M120.399 33.094c-1.299.435-2.676.58-4.028.752-4.98.65-10.147.029-14.781-1.932-.832-.37-1.659-.783-2.375-1.352.745.525 1.574.912 2.417 1.247 4.658 1.823 9.758 2.418 14.723 1.892 1.356-.143 2.726-.24 4.044-.608v.001Z" fill="#7B7A7A"/></g><defs><clipPath id="a"><path fill="#fff" d="M0 0h144v40H0z"/></clipPath></defs></svg>