<svg xmlns="http://www.w3.org/2000/svg" xmlns:xlink="http://www.w3.org/1999/xlink" viewBox="0 0 430.81 115.88"><defs><style>.cls-1{fill:#e2332c;}.cls-2{fill:#002771;}.cls-3{fill:#002a86;}.cls-4{fill:#5e5ea2;}.cls-5{fill:url(#linear-gradient);}.cls-6{fill:url(#linear-gradient-2);}.cls-7{fill:#002b76;}.cls-8{fill:url(#linear-gradient-3);}.cls-9{fill:#fff;}.cls-10{fill:#d9dbdb;}</style><linearGradient id="linear-gradient" x1="3.78" y1="100.69" x2="72.01" y2="100.69" gradientUnits="userSpaceOnUse"><stop offset="0" stop-color="#fff" stop-opacity="0"></stop><stop offset="0.06" stop-color="#e4e5ee" stop-opacity="0.2"></stop><stop offset="0.15" stop-color="#c2c5da" stop-opacity="0.44"></stop><stop offset="0.24" stop-color="#a7abc9" stop-opacity="0.64"></stop><stop offset="0.32" stop-color="#9196bc" stop-opacity="0.8"></stop><stop offset="0.42" stop-color="#8288b2" stop-opacity="0.91"></stop><stop offset="0.51" stop-color="#797fad" stop-opacity="0.98"></stop><stop offset="0.61" stop-color="#767cab"></stop><stop offset="1" stop-color="#fff"></stop><stop offset="1" stop-color="#fff"></stop></linearGradient><linearGradient id="linear-gradient-2" x1="4.31" y1="72.25" x2="82.01" y2="72.25" xlink:href="#linear-gradient"></linearGradient><linearGradient id="linear-gradient-3" x1="3.49" y1="68.8" x2="58.49" y2="35.3" xlink:href="#linear-gradient"></linearGradient></defs><g id="Layer_2" data-name="Layer 2"><g id="Capa_1" data-name="Capa 1"><path class="cls-1" d="M.08,110.3c-.89,6.65,6.17,5.5,6.17,5.5L127.64,90.61c5-.71,6.16-5.92,6.16-5.92L150.13,6.06C151.18,0,145.7,0,145.7,0L22.33,25.3c-5.75,1.17-6.87,7.92-6.87,7.92Z"></path><path class="cls-2" d="M97.58,5.66s-59.76,7.93-84.4,43.69c-.45.64-.9,1.28-1.33,1.94l0,.1,0,0L7.86,71.27h0l-.1.49L8.51,71,88.42,35.53l8.8-25.59-1,.21Z"></path><path class="cls-3" d="M8.43,68.44l-4.38,22c14-6.38,78.11-35,78.11-35s-6.88-4.8-27.47-18.57C38.27,43.12,20.12,53,8.43,68.44Z"></path><path class="cls-4" d="M4.53,88,.08,110.3c-.68,5.12,3.34,5.62,5.23,5.57C28.12,88.72,72.56,85.72,72.56,85.72l8.8-24.09-1,.21L82,55.41S31.41,58.69,4.53,88Z"></path><path class="cls-5" d="M3.78,115.77a7.72,7.72,0,0,0,1.53.1C28.12,88.72,71.63,86.54,71.63,86.54l.38-1C66.43,86,26,89.66,3.78,115.77Z"></path><path class="cls-6" d="M82,55.41S31.41,58.69,4.53,88l-.22,1.1C31.23,60,81.61,56.7,81.61,56.7"></path><path class="cls-7" d="M168.11,34.89h-3.34l-3.05-4.34a10.38,10.38,0,0,1-1.29.08h-1.76v4.26h-2.81V17h4.57c4.92,0,7.63,2.7,7.63,6.83a6.16,6.16,0,0,1-3.58,6Zm-7.78-6.68c3.44,0,4.83-1.63,4.83-4.36s-1.41-4.34-4.83-4.34h-1.66v8.7Z"></path><path class="cls-7" d="M172.71,34.89h-2.84l7.83-18.24h.16l7.86,18.24h-3l-1-2.5h-8Zm5-12.07-3,7.08h5.88S177.76,22.82,177.76,22.82Z"></path><path class="cls-7" d="M188.22,17h5c5.84,0,9.42,3.65,9.42,8.93s-3.55,8.94-9.42,8.94h-5Zm4.89,15.37c4.62,0,6.65-2.65,6.65-6.44s-2-6.44-6.65-6.44H191V32.39Z"></path><path class="cls-7" d="M205.78,17h2.81V34.89h-2.81Z"></path><path class="cls-7" d="M211.69,26a9.23,9.23,0,0,1,18.45,0,9.23,9.23,0,0,1-18.45,0Zm15.54,0c0-3.78-2.6-6.62-6.31-6.62s-6.31,2.84-6.31,6.62,2.6,6.63,6.31,6.63S227.23,29.74,227.23,26Z"></path><path class="cls-7" d="M148.34,63.05a19.71,19.71,0,0,1,20-20.15c7.28,0,12.3,2.83,15.7,7.62l-4.73,3.34c-2.6-3.52-6-5.36-11.14-5.36-7.79,0-13.45,6.23-13.45,14.55,0,8.48,5.77,14.54,13.68,14.54a13.92,13.92,0,0,0,11.78-5.71L185,75.17c-4,5.37-9.18,8-16.8,8C157,83.19,148.34,74.65,148.34,63.05Z"></path><path class="cls-7" d="M193.89,82.67h-6.24l17.21-40.06h.35l17.26,40.06h-6.53l-2.25-5.48H196.14ZM205,56.18l-6.52,15.53h12.93C211.44,71.71,205,56.18,205,56.18Z"></path><path class="cls-7" d="M254.85,82.67h-7.33l-6.7-9.52a22.86,22.86,0,0,1-2.82.17h-3.87v9.35H228V43.42H238c10.79,0,16.73,5.94,16.73,15,0,6.06-2.71,10.73-7.84,13.1ZM237.76,68c7.57,0,10.62-3.58,10.62-9.58s-3.11-9.53-10.62-9.53h-3.63V68Z"></path><path class="cls-7" d="M264.38,82.67h-6.24l17.21-40.06h.34L293,82.67h-6.52l-2.25-5.48H266.63Zm11.08-26.49-6.52,15.53h12.93C281.93,71.71,275.46,56.18,275.46,56.18Z"></path><path class="cls-7" d="M288.51,43.42H295l11.2,26.38,10.85-26.38h6.24l-17,39.83H306Z"></path><path class="cls-7" d="M325.11,82.67h-6.24l17.21-40.06h.34l17.27,40.06h-6.53l-2.25-5.48H327.36Zm11.08-26.49-6.52,15.53H342.6C342.66,71.71,336.19,56.18,336.19,56.18Z"></path><path class="cls-7" d="M364.94,56.87v25.8h-5.77V42.84h.46L384.8,69.22V43.42h5.77V83.25h-.46Z"></path><path class="cls-7" d="M402.24,82.67H396l17.21-40.06h.34l17.26,40.06h-6.52L422,77.19H404.49Zm11.08-26.49L406.8,71.71h12.93C419.79,71.71,413.32,56.18,413.32,56.18Z"></path><path class="cls-8" d="M55.69,37.2c-.23-.16-.76-.2-1-.36C38.27,43.12,20.12,53,8.43,68.44l-.22,1.12C20.25,53.93,38.9,43.71,55.69,37.2Z"></path><polygon class="cls-9" points="81.61 55.75 56.47 37.38 87.68 36.25 97.61 7.46 108.27 36.08 139.58 36.42 114.8 55.22 124.14 84.59 98.26 67.24 72.71 85.04 81.61 55.75"></polygon><path class="cls-10" d="M97.63,9.26l9.93,26.64.29.78h.83l29.11.32-23,17.46-.68.52.26.82L123,83.11,99,67l-.7-.46-.68.47L73.81,83.53l8.26-27.19.25-.83-.7-.51L58.25,37.93l29-1,.84,0,.27-.79,9.24-26.8m0-3.6-10.34,30L54.69,36.84,80.9,56,71.62,86.54,98.27,68l27,18.09-9.74-30.63,25.85-19.61-32.66-.36L97.58,5.66Z"></path></g></g></svg>